<svg width="140" height="130" viewBox="0 0 140 130" fill="none" xmlns="http://www.w3.org/2000/svg">
<ellipse cx="70" cy="64.5981" rx="70" ry="64.5981" fill="#F5F5F5"/>
<path d="M87.875 106.25V97.125H106.125V51.5H42.25V69.75H33.125V33.25C33.125 30.7406 34.0185 28.5924 35.8055 26.8055C37.5924 25.0185 39.7406 24.125 42.25 24.125H46.8125V15H55.9375V24.125H92.4375V15H101.563V24.125H106.125C108.634 24.125 110.783 25.0185 112.57 26.8055C114.357 28.5924 115.25 30.7406 115.25 33.25V97.125C115.25 99.6344 114.357 101.783 112.57 103.57C110.783 105.357 108.634 106.25 106.125 106.25H87.875ZM55.9375 115.375L49.55 108.988L61.2984 97.125H24V88H61.2984L49.55 76.1375L55.9375 69.75L78.75 92.5625L55.9375 115.375ZM42.25 42.375H106.125V33.25H42.25V42.375Z" fill="#106CBD"/>
</svg>
