<svg width="42" height="43" viewBox="0 0 42 43" fill="none" xmlns="http://www.w3.org/2000/svg">
<path d="M10.2375 30.425C11.725 29.2875 13.3875 28.3906 15.225 27.7344C17.0625 27.0781 18.9875 26.75 21 26.75C23.0125 26.75 24.9375 27.0781 26.775 27.7344C28.6125 28.3906 30.275 29.2875 31.7625 30.425C32.7833 29.2292 33.5781 27.8729 34.1469 26.3562C34.7156 24.8396 35 23.2208 35 21.5C35 17.6208 33.6365 14.3177 30.9094 11.5906C28.1823 8.86354 24.8792 7.5 21 7.5C17.1208 7.5 13.8177 8.86354 11.0906 11.5906C8.36354 14.3177 7 17.6208 7 21.5C7 23.2208 7.28437 24.8396 7.85313 26.3562C8.42188 27.8729 9.21667 29.2292 10.2375 30.425ZM21 23.25C19.2792 23.25 17.8281 22.6594 16.6469 21.4781C15.4656 20.2969 14.875 18.8458 14.875 17.125C14.875 15.4042 15.4656 13.9531 16.6469 12.7719C17.8281 11.5906 19.2792 11 21 11C22.7208 11 24.1719 11.5906 25.3531 12.7719C26.5344 13.9531 27.125 15.4042 27.125 17.125C27.125 18.8458 26.5344 20.2969 25.3531 21.4781C24.1719 22.6594 22.7208 23.25 21 23.25ZM21 39C18.5792 39 16.3042 38.5406 14.175 37.6219C12.0458 36.7031 10.1937 35.4562 8.61875 33.8813C7.04375 32.3062 5.79688 30.4542 4.87812 28.325C3.95937 26.1958 3.5 23.9208 3.5 21.5C3.5 19.0792 3.95937 16.8042 4.87812 14.675C5.79688 12.5458 7.04375 10.6937 8.61875 9.11875C10.1937 7.54375 12.0458 6.29688 14.175 5.37812C16.3042 4.45937 18.5792 4 21 4C23.4208 4 25.6958 4.45937 27.825 5.37812C29.9542 6.29688 31.8062 7.54375 33.3813 9.11875C34.9562 10.6937 36.2031 12.5458 37.1219 14.675C38.0406 16.8042 38.5 19.0792 38.5 21.5C38.5 23.9208 38.0406 26.1958 37.1219 28.325C36.2031 30.4542 34.9562 32.3062 33.3813 33.8813C31.8062 35.4562 29.9542 36.7031 27.825 37.6219C25.6958 38.5406 23.4208 39 21 39ZM21 35.5C22.5458 35.5 24.0042 35.274 25.375 34.8219C26.7458 34.3698 28 33.7208 29.1375 32.875C28 32.0292 26.7458 31.3802 25.375 30.9281C24.0042 30.476 22.5458 30.25 21 30.25C19.4542 30.25 17.9958 30.476 16.625 30.9281C15.2542 31.3802 14 32.0292 12.8625 32.875C14 33.7208 15.2542 34.3698 16.625 34.8219C17.9958 35.274 19.4542 35.5 21 35.5ZM21 19.75C21.7583 19.75 22.3854 19.5021 22.8813 19.0062C23.3771 18.5104 23.625 17.8833 23.625 17.125C23.625 16.3667 23.3771 15.7396 22.8813 15.2437C22.3854 14.7479 21.7583 14.5 21 14.5C20.2417 14.5 19.6146 14.7479 19.1187 15.2437C18.6229 15.7396 18.375 16.3667 18.375 17.125C18.375 17.8833 18.6229 18.5104 19.1187 19.0062C19.6146 19.5021 20.2417 19.75 21 19.75Z" fill="white"/>
</svg>
