<svg width="140" height="130" viewBox="0 0 140 130" fill="none" xmlns="http://www.w3.org/2000/svg">
<ellipse cx="70" cy="64.5981" rx="70" ry="64.5981" fill="#F5F5F5"/>
<path d="M24 55.7281C24 48.124 25.6919 41.1471 29.0758 34.7977C32.4596 28.4482 37.0031 23.1823 42.7063 19L48.0672 26.3C43.5047 29.6458 39.8737 33.8661 37.1742 38.9609C34.4747 44.0557 33.125 49.6448 33.125 55.7281H24ZM106.125 55.7281C106.125 49.6448 104.775 44.0557 102.076 38.9609C99.3763 33.8661 95.7453 29.6458 91.1828 26.3L96.5438 19C102.247 23.1823 106.79 28.4482 110.174 34.7977C113.558 41.1471 115.25 48.124 115.25 55.7281H106.125ZM33.125 96.7906V87.6656H42.25V55.7281C42.25 49.4167 44.151 43.8086 47.9531 38.9039C51.7552 33.9992 56.6979 30.7865 62.7813 29.2656V26.0719C62.7813 24.1708 63.4466 22.5549 64.7773 21.2242C66.1081 19.8935 67.724 19.2281 69.625 19.2281C71.526 19.2281 73.1419 19.8935 74.4727 21.2242C75.8034 22.5549 76.4688 24.1708 76.4688 26.0719V29.2656C82.5521 30.7865 87.4948 33.9992 91.2969 38.9039C95.099 43.8086 97 49.4167 97 55.7281V87.6656H106.125V96.7906H33.125ZM69.625 110.478C67.1156 110.478 64.9674 109.585 63.1805 107.798C61.3935 106.011 60.5 103.863 60.5 101.353H78.75C78.75 103.863 77.8565 106.011 76.0695 107.798C74.2826 109.585 72.1344 110.478 69.625 110.478ZM51.375 87.6656H87.875V55.7281C87.875 50.7094 86.088 46.413 82.5141 42.8391C78.9401 39.2651 74.6438 37.4781 69.625 37.4781C64.6063 37.4781 60.3099 39.2651 56.7359 42.8391C53.162 46.413 51.375 50.7094 51.375 55.7281V87.6656Z" fill="#106CBD"/>
</svg>
